     <svg
                  version="1.1"
                  class="max-width-1-3 svg-icon"
                  xmlns="http://www.w3.org/2000/svg"
                  xmlns:xlink="http://www.w3.org/1999/xlink"
                  x="0px"
                  y="0px"
                  viewBox="0 0 517 517"
                  enable-background="new 0 0 517 517;"
                  xml:space="preserve"
                >
                  <g>
                    <g>
                      <path
                        d="M514.5,258.5c0-141.4-114.6-256-256-256s-256,114.6-256,256s114.6,256,256,256S514.5,399.9,514.5,258.5z
                                                      M28.1,258.5c0-127,103.4-230.4,230.4-230.4s230.4,103.4,230.4,230.4S385.5,488.9,258.5,488.9S28.1,385.5,28.1,258.5z"
                      />
                    </g>
                  </g>
                  <g>
                    <g>
                      <path
                        d="M267.5,344.4l128-128c5-5,5-13.1,0-18.1s-13.1-5-18.1,0l-119,118.9l-118.9-119c-5-5-13.1-5-18.1,0
                                                      c-2.5,2.5-3.8,5.8-3.8,9.1s1.2,6.6,3.7,9.1l128,128C254.4,349.4,262.5,349.4,267.5,344.4z"
                      />
                    </g>
                  </g>
                </svg>