<svg version="1.1" class="max-width-1-4 svg-icon" xmlns="http://www.w3.org/2000/svg" xmlns:xlink="http://www.w3.org/1999/xlink" x="0px" y="0px" viewBox="0 0 512 392" enable-background="new 0 0 512 392;" xml:space="preserve">
                                          <g>
                                             <g>
                                                <path d="M490.8,126.7L264,51.1c-2.6-0.9-5.3-1.3-8-1.3c-2.7,0-5.4,0.4-8,1.3L21.2,126.7C10.9,130.2,4,139.8,4,150.6
                                                   s6.9,20.5,17.2,23.9l20.6,6.9v41.9L17.9,271l22.5,11.3l13.9-27.9l13.9,27.9L90.9,271L67,223.3v-33.5l37.8,12.6v99.4
                                                   c0,37.4,115.7,40.3,151.2,40.3s151.2-2.9,151.2-40.3v-99.4l83.6-27.9c10.3-3.4,17.2-13.1,17.2-23.9
                                                   C508,139.8,501.1,130.2,490.8,126.7z M256,317c-64.5,0-106.1-8.6-121.2-15.1c15.1-6.5,56.7-15.1,121.2-15.1s106.1,8.6,121.2,15.1
                                                   C362.1,308.3,320.5,317,256,317z M382,277c-36.1-14-101-15.5-126-15.5S166.1,263,130,277V162c8.8-6.5,52.5-17.7,126-17.7
                                                   s117.2,11.2,126,17.7V277z M407.2,175.8v-16.4c0-37.4-115.7-40.3-151.2-40.3s-151.2,2.9-151.2,40.3v16.4l-75.6-25.2L256,75
                                                   l226.8,75.6L407.2,175.8z"></path>
                                             </g>
                                          </g>
                                       </svg>