<svg version="1.1" class="max-width-1 svg-icon" xmlns="http://www.w3.org/2000/svg" xmlns:xlink="http://www.w3.org/1999/xlink" x="0px" y="0px" viewBox="0 0 517 517" enable-background="new 0 0 517 517;" xml:space="preserve" fill="currentColor">
                                          <g>
                                             <g>
                                                <path d="M504.6,187.1L274.2,7.9c-4.6-3.6-10.2-5.4-15.7-5.4s-11.1,1.8-15.7,5.4L12.4,187.1c-8.6,6.7-12,18.2-8.5,28.5
                                                   c3.6,10.3,13.3,17.3,24.2,17.3h25.6v281.6h153.6V309.7h102.4v204.8h153.6V232.9h25.6c10.9,0,20.7-6.9,24.2-17.3
                                                   C516.7,205.3,513.2,193.8,504.6,187.1z M437.7,207.3v281.6H335.3V309.7c0-14.1-11.5-25.6-25.6-25.6H207.3
                                                   c-14.1,0-25.6,11.5-25.6,25.6v179.2H79.3V207.3H28.1L258.5,28.1l230.4,179.2H437.7L437.7,207.3z"></path>
                                             </g>
                                          </g>
                                       </svg>