<svg version="1.1" class="max-width-1 svg-icon" xmlns="http://www.w3.org/2000/svg" xmlns:xlink="http://www.w3.org/1999/xlink" x="0px" y="0px" viewBox="0 0 514 411.6" enable-background="new 0 0 514 411.6;" xml:space="preserve" fill="currentColor">
                                          <g>
                                             <g>
                                                <path d="M500.2,1H13.8C6.7,1,1,6.7,1,13.8v384c0,7.1,5.7,12.8,12.8,12.8h486.4c7.1,0,12.8-5.7,12.8-12.8v-384
                                                   C513,6.7,507.3,1,500.2,1z M487.4,385H26.6V26.6h460.8V385z"></path>
                                             </g>
                                          </g>
                                          <g>
                                             <g>
                                                <path d="M459.3,57.4c-4.2-5.7-12.2-6.9-17.9-2.7L257,189.9L72.6,54.7c-5.7-4.2-13.7-3-17.9,2.7s-3,13.7,2.7,17.9
                                                   l192,140.8c2.3,1.6,4.9,2.5,7.6,2.5s5.3-0.8,7.6-2.5l192-140.8C462.3,71.2,463.5,63.1,459.3,57.4z"></path>
                                             </g>
                                          </g>
                                       </svg>