<svg class="max-width-1 svg-icon" version="1.1" xmlns="http://www.w3.org/2000/svg" xmlns:xlink="http://www.w3.org/1999/xlink" x="0px" y="0px" viewBox="0 0 517 414.6" enable-background="new 0 0 517 414.6;" xml:space="preserve" fill="currentColor">
                                          <g>
                                             <g>
                                                <path d="M488.9,79.3h-91.8L327.8,10c-4.8-4.8-11.3-7.5-18.1-7.5H207.3c-6.8,0-13.3,2.7-18.1,7.5l-69.3,69.3H28.1
                                                   C14,79.3,2.5,90.8,2.5,104.9v281.6c0,14.1,11.5,25.6,25.6,25.6h460.8c14.1,0,25.6-11.5,25.6-25.6V104.9
                                                   C514.5,90.8,503,79.3,488.9,79.3z M488.9,386.5H28.1V104.9h102.4l76.8-76.8h102.4l76.8,76.8h102.4V386.5z"></path>
                                             </g>
                                          </g>
                                          <g>
                                             <g>
                                                <path d="M258.5,104.9c-70.7,0-128,57.3-128,128s57.3,128,128,128s128-57.3,128-128S329.2,104.9,258.5,104.9z
                                                   M258.5,335.3c-56.5,0-102.4-45.9-102.4-102.4S202,130.5,258.5,130.5s102.4,45.9,102.4,102.4S315,335.3,258.5,335.3z"></path>
                                             </g>
                                          </g>
                                       </svg>