               <svg
                  version="1.1"
                  class="max-width-1-3 svg-icon"
                  xmlns="http://www.w3.org/2000/svg"
                  xmlns:xlink="http://www.w3.org/1999/xlink"
                  x="0px"
                  y="0px"
                  viewBox="0 0 518 518"
                  enable-background="new 0 0 518 518;"
                  xml:space="preserve"
                >
                  <g>
                    <g>
                      <rect x="169.4" y="438.2" width="179.2" height="25.6" />
                    </g>
                  </g>
                  <g>
                    <g>
                      <rect x="169.4" y="387" width="179.2" height="25.6" />
                    </g>
                  </g>
                  <g>
                    <g>
                      <rect x="169.4" y="335.8" width="179.2" height="25.6" />
                    </g>
                  </g>
                  <g>
                    <g>
                      <path
                        d="M463.8,131h-64V3H118.2v128h-64C26,131,3,154,3,182.2v179.2c0,28.2,23,51.2,51.2,51.2h64V515h281.6V412.6h64
                                                      c28.2,0,51.2-23,51.2-51.2V182.2C515,154,492,131,463.8,131z M143.8,28.6h230.4V131H143.8V28.6z M374.2,489.4H143.8V284.6h230.4
                                                      V489.4z M489.4,361.4c0,14.1-11.5,25.6-25.6,25.6h-64V284.6h25.6c7.1,0,12.8-5.7,12.8-12.8c0-7.1-5.7-12.8-12.8-12.8H92.6
                                                      c-7.1,0-12.8,5.7-12.8,12.8c0,7.1,5.7,12.8,12.8,12.8h25.6V387h-64c-14.1,0-25.6-11.5-25.6-25.6V182.2c0-14.1,11.5-25.6,25.6-25.6
                                                      h409.6c14.1,0,25.6,11.5,25.6,25.6V361.4z"
                      />
                    </g>
                  </g>
                  <g>
                    <g>
                      <path
                        d="M425.4,182.2H323c-7.1,0-12.8,5.7-12.8,12.8s5.7,12.8,12.8,12.8h102.4c7.1,0,12.8-5.7,12.8-12.8
                                                      S432.5,182.2,425.4,182.2z"
                      />
                    </g>
                  </g>
                </svg>