<svg version="1.1" class="max-width-1 svg-icon" xmlns="http://www.w3.org/2000/svg" xmlns:xlink="http://www.w3.org/1999/xlink" x="0px" y="0px" viewBox="0 0 512 514.5" enable-background="new 0 0 512 514.5;" xml:space="preserve" fill="currentColor">
                                          <g>
                                             <g>
                                                <path d="M256,2.5c-84.8,0-153.6,86-153.6,192s68.8,192,153.6,192s153.6-86,153.6-192S340.8,2.5,256,2.5z M256,360.9
                                                   c-70.6,0-128-74.6-128-166.4S185.4,28.1,256,28.1s128,74.7,128,166.4S326.6,360.9,256,360.9z"></path>
                                             </g>
                                          </g>
                                          <g>
                                             <g>
                                                <path d="M367.8,364.3c-6.9,6.7-14.2,12.7-21.8,18.1c24.4,11.3,45.8,20.8,64.1,28.7c67.8,29.6,76.4,35.4,76.4,52.2
                                                   c0,11.6-11.4,25.6-25.6,25.6H51.2c-14.2,0-25.6-14-25.6-25.6c0-16.8,8.6-22.6,76.3-52.2c18.3-8,39.7-17.4,64.1-28.7
                                                   c-7.6-5.4-14.9-11.4-21.8-18.1C37.6,413,0,419.6,0,463.3c0,25.6,22.9,51.2,51.2,51.2h409.6c28.3,0,51.2-25.6,51.2-51.2
                                                   C512,419.6,474.4,413,367.8,364.3z"></path>
                                             </g>
                                          </g>
                                       </svg>