<svg version="1.1" xmlns="http://www.w3.org/2000/svg" xmlns:xlink="http://www.w3.org/1999/xlink" x="0px" y="0px" viewBox="0 0 35.9 38.6" enable-background="new 0 0 35.9 38.6;" xml:space="preserve" data-depth="0.3" fill="blue" >
               <g>
                  <g>
                     <g>
                        <g>
                           <defs>
                              <path id="SVGID_1_" d="M0,4.6l2.7,30.1c0.3,3.3,4,5,6.7,3.1l24.7-17.3c2.7-1.9,2.3-6-0.6-7.4L6.1,0.4C3.1-1-0.3,1.4,0,4.6z" fill="green"></path>
                           </defs>
                           <clipPath id="SVGID_2_">
                              <use xlink:href="#SVGID_1_"></use>
                           </clipPath>
                           <line class="st0" style="stroke: #558e6a;clip-path:url(#SVGID_2_);fill:none;stroke-width:2.0675;stroke-miterlimit:10;" x1="-26.8" y1="10.7" x2="20.7" y2="-22.8"></line>
                        </g>
                     </g>
                  </g>
               </g>
               <g>
                  <g>
                     <g>
                        <g>
                           <defs>
                              <path id="SVGID_3_" d="M0,4.6l2.7,30.1c0.3,3.3,4,5,6.7,3.1l24.7-17.3c2.7-1.9,2.3-6-0.6-7.4L6.1,0.4C3.1-1-0.3,1.4,0,4.6z"></path>
                           </defs>
                           <clipPath id="SVGID_4_">
                              <use xlink:href="#SVGID_3_"></use>
                           </clipPath>
                           <line class="st1" style="stroke: #558e6a;clip-path:url(#SVGID_4_);fill:none;stroke-width:2.0675;stroke-miterlimit:10;" x1="-24.2" y1="14.5" x2="23.5" y2="-19"></line>
                        </g>
                     </g>
                  </g>
               </g>
               <g>
                  <g>
                     <g>
                        <defs>
                           <path id="SVGID_5_" d="M0,4.6l2.7,30.1c0.3,3.3,4,5,6.7,3.1l24.7-17.3c2.7-1.9,2.3-6-0.6-7.4L6.1,0.4C3.1-1-0.3,1.4,0,4.6z"></path>
                        </defs>
                        <clipPath id="SVGID_6_">
                           <use xlink:href="#SVGID_5_"></use>
                        </clipPath>
                        <line class="st2" style="stroke: #558e6a;clip-path:url(#SVGID_6_);fill:none;stroke-width:2.0675;stroke-miterlimit:10;" x1="-21.5" y1="18.4" x2="26.2" y2="-15.1"></line>
                     </g>
                  </g>
               </g>
               <g>
                  <g>
                     <g>
                        <defs>
                           <path id="SVGID_7_" d="M0,4.6l2.7,30.1c0.3,3.3,4,5,6.7,3.1l24.7-17.3c2.7-1.9,2.3-6-0.6-7.4L6.1,0.4C3.1-1-0.3,1.4,0,4.6z"></path>
                        </defs>
                        <clipPath id="SVGID_8_">
                           <use xlink:href="#SVGID_7_"></use>
                        </clipPath>
                        <line class="st3" style="stroke: #558e6a;clip-path:url(#SVGID_8_);fill:none;stroke-width:2.0675;stroke-miterlimit:10;" x1="-18.7" y1="22.2" x2="28.9" y2="-11.3"></line>
                     </g>
                  </g>
               </g>
               <g>
                  <g>
                     <g>
                        <g>
                           <defs>
                              <path id="SVGID_9_" d="M0,4.6l2.7,30.1c0.3,3.3,4,5,6.7,3.1l24.7-17.3c2.7-1.9,2.3-6-0.6-7.4L6.1,0.4C3.1-1-0.3,1.4,0,4.6z"></path>
                           </defs>
                           <clipPath id="SVGID_10_">
                              <use xlink:href="#SVGID_9_"></use>
                           </clipPath>
                           <line class="st4" style="stroke: #558e6a;clip-path:url(#SVGID_10_);fill:none;stroke-width:2.0675;stroke-miterlimit:10;" x1="-16.1" y1="26.1" x2="31.6" y2="-7.4"></line>
                        </g>
                     </g>
                  </g>
               </g>
               <g>
                  <g>
                     <g>
                        <g>
                           <defs>
                              <path id="SVGID_11_" d="M0,4.6l2.7,30.1c0.3,3.3,4,5,6.7,3.1l24.7-17.3c2.7-1.9,2.3-6-0.6-7.4L6.1,0.4C3.1-1-0.3,1.4,0,4.6z"></path>
                           </defs>
                           <clipPath id="SVGID_12_">
                              <use xlink:href="#SVGID_11_"></use>
                           </clipPath>
                           <line class="st5" style="stroke: #558e6a;clip-path:url(#SVGID_12_);fill:none;stroke-width:2.0675;stroke-miterlimit:10;" x1="-13.3" y1="29.9" x2="34.4" y2="-3.5"></line>
                        </g>
                     </g>
                  </g>
               </g>
               <g>
                  <g>
                     <g>
                        <g>
                           <defs>
                              <path id="SVGID_13_" d="M0,4.6l2.7,30.1c0.3,3.3,4,5,6.7,3.1l24.7-17.3c2.7-1.9,2.3-6-0.6-7.4L6.1,0.4C3.1-1-0.3,1.4,0,4.6z"></path>
                           </defs>
                           <clipPath id="SVGID_14_">
                              <use xlink:href="#SVGID_13_"></use>
                           </clipPath>
                           <line class="st6" style="stroke: #558e6a;clip-path:url(#SVGID_14_);fill:none;stroke-width:2.0675;stroke-miterlimit:10;" x1="-10.6" y1="33.8" x2="37" y2="0.3"></line>
                        </g>
                     </g>
                  </g>
               </g>
               <g>
                  <g>
                     <defs>
                        <path id="SVGID_15_" d="M0,4.6l2.7,30.1c0.3,3.3,4,5,6.7,3.1l24.7-17.3c2.7-1.9,2.3-6-0.6-7.4L6.1,0.4C3.1-1-0.3,1.4,0,4.6z"></path>
                     </defs>
                     <clipPath id="SVGID_16_">
                        <use xlink:href="#SVGID_15_"></use>
                     </clipPath>
                     <line class="st7" style="stroke: #558e6a;clip-path:url(#SVGID_16_);fill:none;stroke-width:2.0675;stroke-miterlimit:10;" x1="-7.9" y1="37.7" x2="39.7" y2="4.2"></line>
                  </g>
               </g>
               <g>
                  <g>
                     <g>
                        <g>
                           <defs>
                              <path id="SVGID_17_" d="M0,4.6l2.7,30.1c0.3,3.3,4,5,6.7,3.1l24.7-17.3c2.7-1.9,2.3-6-0.6-7.4L6.1,0.4C3.1-1-0.3,1.4,0,4.6z"></path>
                           </defs>
                           <clipPath id="SVGID_18_">
                              <use xlink:href="#SVGID_17_"></use>
                           </clipPath>
                           <line class="st8" style="stroke: #558e6a;clip-path:url(#SVGID_18_);fill:none;stroke-width:2.0675;stroke-miterlimit:10;" x1="-5.2" y1="41.5" x2="42.5" y2="8"></line>
                        </g>
                     </g>
                  </g>
               </g>
               <g>
                  <g>
                     <g>
                        <g>
                           <defs>
                              <path id="SVGID_19_" d="M0,4.6l2.7,30.1c0.3,3.3,4,5,6.7,3.1l24.7-17.3c2.7-1.9,2.3-6-0.6-7.4L6.1,0.4C3.1-1-0.3,1.4,0,4.6z"></path>
                           </defs>
                           <clipPath id="SVGID_20_">
                              <use xlink:href="#SVGID_19_"></use>
                           </clipPath>
                           <line class="st9" style="stroke: #558e6a;clip-path:url(#SVGID_20_);fill:none;stroke-width:2.0675;stroke-miterlimit:10;" x1="-2.4" y1="45.4" x2="45.1" y2="11.9"></line>
                        </g>
                     </g>
                  </g>
               </g>
               <g>
                  <g>
                     <g>
                        <g>
                           <defs>
                              <path id="SVGID_21_" d="M0,4.6l2.7,30.1c0.3,3.3,4,5,6.7,3.1l24.7-17.3c2.7-1.9,2.3-6-0.6-7.4L6.1,0.4C3.1-1-0.3,1.4,0,4.6z"></path>
                           </defs>
                           <clipPath id="SVGID_22_">
                              <use xlink:href="#SVGID_21_"></use>
                           </clipPath>
                           <line class="st10" x1="0.2" y1="49.2" x2="47.9" y2="15.8"></line>
                        </g>
                     </g>
                  </g>
               </g>
            </svg>